<svg xmlns="http://www.w3.org/2000/svg" viewBox="0 0 1200 1600" width="1200" height="1600">
<rect width="1200" height="1600" fill="#0E1A2B"/>
<text x="80" y="200" font-family="Archivo Black" font-size="184" letter-spacing="-2" fill="#E8E2D6">CÓNDOR</text>
<text x="86" y="250" font-family="Inter" font-weight="600" font-size="27" letter-spacing="1" fill="#E8E2D6">Nº 01 <tspan fill="#E08A3C">·</tspan> 23 de septiembre de 2026</text>
<rect x="80" y="276" width="1040" height="3" fill="#E8E2D6" opacity="0.85"/>
<rect x="80" y="330" width="760" height="720" rx="56" fill="none" stroke="#4A5568" stroke-width="3"/>
<g><rect x="106.8" y="356.8" width="26.5" height="26.5" rx="2" fill="none" stroke="#4A5568" stroke-width="1.5"/><rect x="146.8" y="356.8" width="26.5" height="26.5" rx="2" fill="none" stroke="#4A5568" stroke-width="1.5"/><rect x="186.8" y="356.8" width="26.5" height="26.5" rx="2" fill="none" stroke="#4A5568" stroke-width="1.5"/><rect x="226.8" y="356.8" width="26.5" height="26.5" rx="2" fill="none" stroke="#4A5568" stroke-width="1.5"/><rect x="266.8" y="356.8" width="26.5" height="26.5" rx="2" fill="none" stroke="#4A5568" stroke-width="1.5"/><rect x="306.8" y="356.8" width="26.5" height="26.5" rx="2" fill="none" stroke="#4A5568" stroke-width="1.5"/><rect x="346.8" y="356.8" width="26.5" height="26.5" rx="2" fill="none" stroke="#4A5568" stroke-width="1.5"/><rect x="386.8" y="356.8" width="26.5" height="26.5" rx="2" fill="none" stroke="#4A5568" stroke-width="1.5"/><rect x="426.8" y="356.8" width="26.5" height="26.5" rx="2" fill="none" stroke="#4A5568" stroke-width="1.5"/><rect x="466.8" y="356.8" width="26.5" height="26.5" rx="2" fill="none" stroke="#4A5568" stroke-width="1.5"/><rect x="506.8" y="356.8" width="26.5" height="26.5" rx="2" fill="none" stroke="#4A5568" stroke-width="1.5"/><rect x="546.8" y="356.8" width="26.5" height="26.5" rx="2" fill="none" stroke="#4A5568" stroke-width="1.5"/><rect x="586.8" y="356.8" width="26.5" height="26.5" rx="2" fill="none" stroke="#4A5568" stroke-width="1.5"/><rect x="626.8" y="356.8" width="26.5" height="26.5" rx="2" fill="none" stroke="#4A5568" stroke-width="1.5"/><rect x="666.8" y="356.8" width="26.5" height="26.5" rx="2" fill="none" stroke="#4A5568" stroke-width="1.5"/><rect x="706.8" y="356.8" width="26.5" height="26.5" rx="2" fill="none" stroke="#4A5568" stroke-width="1.5"/><rect x="746.8" y="356.8" width="26.5" height="26.5" rx="2" fill="none" stroke="#4A5568" stroke-width="1.5"/><rect x="786.8" y="356.8" width="26.5" height="26.5" rx="2" fill="none" stroke="#4A5568" stroke-width="1.5"/><rect x="106.8" y="396.8" width="26.5" height="26.5" rx="2" fill="none" stroke="#4A5568" stroke-width="1.5"/><rect x="146.8" y="396.8" width="26.5" height="26.5" rx="2" fill="none" stroke="#4A5568" stroke-width="1.5"/><rect x="186.8" y="396.8" width="26.5" height="26.5" rx="2" fill="none" stroke="#4A5568" stroke-width="1.5"/><rect x="226.8" y="396.8" width="26.5" height="26.5" rx="2" fill="none" stroke="#4A5568" stroke-width="1.5"/><rect x="266.8" y="396.8" width="26.5" height="26.5" rx="2" fill="none" stroke="#4A5568" stroke-width="1.5"/><rect x="306.8" y="396.8" width="26.5" height="26.5" rx="2" fill="none" stroke="#4A5568" stroke-width="1.5"/><rect x="346.8" y="396.8" width="26.5" height="26.5" rx="2" fill="none" stroke="#4A5568" stroke-width="1.5"/><rect x="386.8" y="396.8" width="26.5" height="26.5" rx="2" fill="none" stroke="#4A5568" stroke-width="1.5"/><rect x="426.8" y="396.8" width="26.5" height="26.5" rx="2" fill="none" stroke="#4A5568" stroke-width="1.5"/><rect x="466.8" y="396.8" width="26.5" height="26.5" rx="2" fill="none" stroke="#4A5568" stroke-width="1.5"/><rect x="506.8" y="396.8" width="26.5" height="26.5" rx="2" fill="none" stroke="#4A5568" stroke-width="1.5"/><rect x="546.8" y="396.8" width="26.5" height="26.5" rx="2" fill="none" stroke="#4A5568" stroke-width="1.5"/><rect x="586.8" y="396.8" width="26.5" height="26.5" rx="2" fill="none" stroke="#4A5568" stroke-width="1.5"/><rect x="626.8" y="396.8" width="26.5" height="26.5" rx="2" fill="none" stroke="#4A5568" stroke-width="1.5"/><rect x="666.8" y="396.8" width="26.5" height="26.5" rx="2" fill="none" stroke="#4A5568" stroke-width="1.5"/><rect x="706.8" y="396.8" width="26.5" height="26.5" rx="2" fill="none" stroke="#4A5568" stroke-width="1.5"/><rect x="746.8" y="396.8" width="26.5" height="26.5" rx="2" fill="none" stroke="#4A5568" stroke-width="1.5"/><rect x="786.8" y="396.8" width="26.5" height="26.5" rx="2" fill="none" stroke="#4A5568" stroke-width="1.5"/><rect x="106.8" y="436.8" width="26.5" height="26.5" rx="2" fill="none" stroke="#4A5568" stroke-width="1.5"/><rect x="146.8" y="436.8" width="26.5" height="26.5" rx="2" fill="none" stroke="#4A5568" stroke-width="1.5"/><rect x="186.8" y="436.8" width="26.5" height="26.5" rx="2" fill="none" stroke="#4A5568" stroke-width="1.5"/><rect x="226.8" y="436.8" width="26.5" height="26.5" rx="2" fill="none" stroke="#4A5568" stroke-width="1.5"/><rect x="266.8" y="436.8" width="26.5" height="26.5" rx="2" fill="none" stroke="#4A5568" stroke-width="1.5"/><rect x="306.8" y="436.8" width="26.5" height="26.5" rx="2" fill="none" stroke="#4A5568" stroke-width="1.5"/><rect x="346.8" y="436.8" width="26.5" height="26.5" rx="2" fill="none" stroke="#4A5568" stroke-width="1.5"/><rect x="546.8" y="436.8" width="26.5" height="26.5" rx="2" fill="none" stroke="#4A5568" stroke-width="1.5"/><rect x="586.8" y="436.8" width="26.5" height="26.5" rx="2" fill="none" stroke="#4A5568" stroke-width="1.5"/><rect x="626.8" y="436.8" width="26.5" height="26.5" rx="2" fill="none" stroke="#4A5568" stroke-width="1.5"/><rect x="666.8" y="436.8" width="26.5" height="26.5" rx="2" fill="none" stroke="#4A5568" stroke-width="1.5"/><rect x="706.8" y="436.8" width="26.5" height="26.5" rx="2" fill="none" stroke="#4A5568" stroke-width="1.5"/><rect x="746.8" y="436.8" width="26.5" height="26.5" rx="2" fill="none" stroke="#4A5568" stroke-width="1.5"/><rect x="786.8" y="436.8" width="26.5" height="26.5" rx="2" fill="none" stroke="#4A5568" stroke-width="1.5"/><rect x="106.8" y="476.8" width="26.5" height="26.5" rx="2" fill="none" stroke="#4A5568" stroke-width="1.5"/><rect x="146.8" y="476.8" width="26.5" height="26.5" rx="2" fill="none" stroke="#4A5568" stroke-width="1.5"/><rect x="186.8" y="476.8" width="26.5" height="26.5" rx="2" fill="none" stroke="#4A5568" stroke-width="1.5"/><rect x="226.8" y="476.8" width="26.5" height="26.5" rx="2" fill="none" stroke="#4A5568" stroke-width="1.5"/><rect x="266.8" y="476.8" width="26.5" height="26.5" rx="2" fill="none" stroke="#4A5568" stroke-width="1.5"/><rect x="306.8" y="476.8" width="26.5" height="26.5" rx="2" fill="none" stroke="#4A5568" stroke-width="1.5"/><rect x="346.8" y="476.8" width="26.5" height="26.5" rx="2" fill="none" stroke="#4A5568" stroke-width="1.5"/><rect x="546.8" y="476.8" width="26.5" height="26.5" rx="2" fill="none" stroke="#4A5568" stroke-width="1.5"/><rect x="586.8" y="476.8" width="26.5" height="26.5" rx="2" fill="none" stroke="#4A5568" stroke-width="1.5"/><rect x="626.8" y="476.8" width="26.5" height="26.5" rx="2" fill="none" stroke="#4A5568" stroke-width="1.5"/><rect x="666.8" y="476.8" width="26.5" height="26.5" rx="2" fill="none" stroke="#4A5568" stroke-width="1.5"/><rect x="706.8" y="476.8" width="26.5" height="26.5" rx="2" fill="none" stroke="#4A5568" stroke-width="1.5"/><rect x="746.8" y="476.8" width="26.5" height="26.5" rx="2" fill="none" stroke="#4A5568" stroke-width="1.5"/><rect x="786.8" y="476.8" width="26.5" height="26.5" rx="2" fill="none" stroke="#4A5568" stroke-width="1.5"/><rect x="106.8" y="516.8" width="26.5" height="26.5" rx="2" fill="none" stroke="#4A5568" stroke-width="1.5"/><rect x="146.8" y="516.8" width="26.5" height="26.5" rx="2" fill="none" stroke="#4A5568" stroke-width="1.5"/><rect x="186.8" y="516.8" width="26.5" height="26.5" rx="2" fill="none" stroke="#4A5568" stroke-width="1.5"/><rect x="226.8" y="516.8" width="26.5" height="26.5" rx="2" fill="none" stroke="#4A5568" stroke-width="1.5"/><rect x="266.8" y="516.8" width="26.5" height="26.5" rx="2" fill="none" stroke="#4A5568" stroke-width="1.5"/><rect x="306.8" y="516.8" width="26.5" height="26.5" rx="2" fill="none" stroke="#4A5568" stroke-width="1.5"/><rect x="346.8" y="516.8" width="26.5" height="26.5" rx="2" fill="none" stroke="#4A5568" stroke-width="1.5"/><rect x="546.8" y="516.8" width="26.5" height="26.5" rx="2" fill="none" stroke="#4A5568" stroke-width="1.5"/><rect x="586.8" y="516.8" width="26.5" height="26.5" rx="2" fill="none" stroke="#4A5568" stroke-width="1.5"/><rect x="626.8" y="516.8" width="26.5" height="26.5" rx="2" fill="none" stroke="#4A5568" stroke-width="1.5"/><rect x="666.8" y="516.8" width="26.5" height="26.5" rx="2" fill="none" stroke="#4A5568" stroke-width="1.5"/><rect x="706.8" y="516.8" width="26.5" height="26.5" rx="2" fill="none" stroke="#4A5568" stroke-width="1.5"/><rect x="746.8" y="516.8" width="26.5" height="26.5" rx="2" fill="none" stroke="#4A5568" stroke-width="1.5"/><rect x="786.8" y="516.8" width="26.5" height="26.5" rx="2" fill="none" stroke="#4A5568" stroke-width="1.5"/><rect x="106.8" y="556.8" width="26.5" height="26.5" rx="2" fill="none" stroke="#4A5568" stroke-width="1.5"/><rect x="146.8" y="556.8" width="26.5" height="26.5" rx="2" fill="none" stroke="#4A5568" stroke-width="1.5"/><rect x="186.8" y="556.8" width="26.5" height="26.5" rx="2" fill="none" stroke="#4A5568" stroke-width="1.5"/><rect x="226.8" y="556.8" width="26.5" height="26.5" rx="2" fill="none" stroke="#4A5568" stroke-width="1.5"/><rect x="346.8" y="556.8" width="26.5" height="26.5" rx="2" fill="none" stroke="#4A5568" stroke-width="1.5"/><rect x="386.8" y="556.8" width="26.5" height="26.5" rx="2" fill="none" stroke="#4A5568" stroke-width="1.5"/><rect x="426.8" y="556.8" width="26.5" height="26.5" rx="2" fill="none" stroke="#4A5568" stroke-width="1.5"/><rect x="466.8" y="556.8" width="26.5" height="26.5" rx="2" fill="none" stroke="#4A5568" stroke-width="1.5"/><rect x="506.8" y="556.8" width="26.5" height="26.5" rx="2" fill="none" stroke="#4A5568" stroke-width="1.5"/><rect x="546.8" y="556.8" width="26.5" height="26.5" rx="2" fill="none" stroke="#4A5568" stroke-width="1.5"/><rect x="666.8" y="556.8" width="26.5" height="26.5" rx="2" fill="none" stroke="#4A5568" stroke-width="1.5"/><rect x="706.8" y="556.8" width="26.5" height="26.5" rx="2" fill="none" stroke="#4A5568" stroke-width="1.5"/><rect x="746.8" y="556.8" width="26.5" height="26.5" rx="2" fill="none" stroke="#4A5568" stroke-width="1.5"/><rect x="786.8" y="556.8" width="26.5" height="26.5" rx="2" fill="none" stroke="#4A5568" stroke-width="1.5"/><rect x="106.8" y="596.8" width="26.5" height="26.5" rx="2" fill="none" stroke="#4A5568" stroke-width="1.5"/><rect x="146.8" y="596.8" width="26.5" height="26.5" rx="2" fill="none" stroke="#4A5568" stroke-width="1.5"/><rect x="186.8" y="596.8" width="26.5" height="26.5" rx="2" fill="none" stroke="#4A5568" stroke-width="1.5"/><rect x="226.8" y="596.8" width="26.5" height="26.5" rx="2" fill="none" stroke="#4A5568" stroke-width="1.5"/><rect x="346.8" y="596.8" width="26.5" height="26.5" rx="2" fill="none" stroke="#4A5568" stroke-width="1.5"/><rect x="386.8" y="596.8" width="26.5" height="26.5" rx="2" fill="none" stroke="#4A5568" stroke-width="1.5"/><rect x="426.8" y="596.8" width="26.5" height="26.5" rx="2" fill="none" stroke="#4A5568" stroke-width="1.5"/><rect x="466.8" y="596.8" width="26.5" height="26.5" rx="2" fill="none" stroke="#4A5568" stroke-width="1.5"/><rect x="506.8" y="596.8" width="26.5" height="26.5" rx="2" fill="none" stroke="#4A5568" stroke-width="1.5"/><rect x="546.8" y="596.8" width="26.5" height="26.5" rx="2" fill="none" stroke="#4A5568" stroke-width="1.5"/><rect x="666.8" y="596.8" width="26.5" height="26.5" rx="2" fill="none" stroke="#4A5568" stroke-width="1.5"/><rect x="706.8" y="596.8" width="26.5" height="26.5" rx="2" fill="none" stroke="#4A5568" stroke-width="1.5"/><rect x="746.8" y="596.8" width="26.5" height="26.5" rx="2" fill="none" stroke="#4A5568" stroke-width="1.5"/><rect x="786.8" y="596.8" width="26.5" height="26.5" rx="2" fill="none" stroke="#4A5568" stroke-width="1.5"/><rect x="106.8" y="636.8" width="26.5" height="26.5" rx="2" fill="none" stroke="#4A5568" stroke-width="1.5"/><rect x="146.8" y="636.8" width="26.5" height="26.5" rx="2" fill="none" stroke="#4A5568" stroke-width="1.5"/><rect x="186.8" y="636.8" width="26.5" height="26.5" rx="2" fill="none" stroke="#4A5568" stroke-width="1.5"/><rect x="226.8" y="636.8" width="26.5" height="26.5" rx="2" fill="none" stroke="#4A5568" stroke-width="1.5"/><rect x="346.8" y="636.8" width="26.5" height="26.5" rx="2" fill="none" stroke="#4A5568" stroke-width="1.5"/><rect x="386.8" y="636.8" width="26.5" height="26.5" rx="2" fill="none" stroke="#4A5568" stroke-width="1.5"/><rect x="426.8" y="636.8" width="26.5" height="26.5" rx="2" fill="none" stroke="#4A5568" stroke-width="1.5"/><rect x="466.8" y="636.8" width="26.5" height="26.5" rx="2" fill="none" stroke="#4A5568" stroke-width="1.5"/><rect x="506.8" y="636.8" width="26.5" height="26.5" rx="2" fill="none" stroke="#4A5568" stroke-width="1.5"/><rect x="546.8" y="636.8" width="26.5" height="26.5" rx="2" fill="none" stroke="#4A5568" stroke-width="1.5"/><rect x="666.8" y="636.8" width="26.5" height="26.5" rx="2" fill="none" stroke="#4A5568" stroke-width="1.5"/><rect x="706.8" y="636.8" width="26.5" height="26.5" rx="2" fill="none" stroke="#4A5568" stroke-width="1.5"/><rect x="746.8" y="636.8" width="26.5" height="26.5" rx="2" fill="none" stroke="#4A5568" stroke-width="1.5"/><rect x="786.8" y="636.8" width="26.5" height="26.5" rx="2" fill="none" stroke="#4A5568" stroke-width="1.5"/><rect x="106.8" y="676.8" width="26.5" height="26.5" rx="2" fill="none" stroke="#4A5568" stroke-width="1.5"/><rect x="146.8" y="676.8" width="26.5" height="26.5" rx="2" fill="none" stroke="#4A5568" stroke-width="1.5"/><rect x="186.8" y="676.8" width="26.5" height="26.5" rx="2" fill="none" stroke="#4A5568" stroke-width="1.5"/><rect x="226.8" y="676.8" width="26.5" height="26.5" rx="2" fill="none" stroke="#4A5568" stroke-width="1.5"/><rect x="346.8" y="676.8" width="26.5" height="26.5" rx="2" fill="none" stroke="#4A5568" stroke-width="1.5"/><rect x="386.8" y="676.8" width="26.5" height="26.5" rx="2" fill="none" stroke="#4A5568" stroke-width="1.5"/><rect x="426.8" y="676.8" width="26.5" height="26.5" rx="2" fill="none" stroke="#4A5568" stroke-width="1.5"/><rect x="466.8" y="676.8" width="26.5" height="26.5" rx="2" fill="none" stroke="#4A5568" stroke-width="1.5"/><rect x="506.8" y="676.8" width="26.5" height="26.5" rx="2" fill="none" stroke="#4A5568" stroke-width="1.5"/><rect x="546.8" y="676.8" width="26.5" height="26.5" rx="2" fill="none" stroke="#4A5568" stroke-width="1.5"/><rect x="666.8" y="676.8" width="26.5" height="26.5" rx="2" fill="none" stroke="#4A5568" stroke-width="1.5"/><rect x="706.8" y="676.8" width="26.5" height="26.5" rx="2" fill="none" stroke="#4A5568" stroke-width="1.5"/><rect x="746.8" y="676.8" width="26.5" height="26.5" rx="2" fill="none" stroke="#4A5568" stroke-width="1.5"/><rect x="786.8" y="676.8" width="26.5" height="26.5" rx="2" fill="none" stroke="#4A5568" stroke-width="1.5"/><rect x="106.8" y="716.8" width="26.5" height="26.5" rx="2" fill="none" stroke="#4A5568" stroke-width="1.5"/><rect x="146.8" y="716.8" width="26.5" height="26.5" rx="2" fill="none" stroke="#4A5568" stroke-width="1.5"/><rect x="186.8" y="716.8" width="26.5" height="26.5" rx="2" fill="none" stroke="#4A5568" stroke-width="1.5"/><rect x="226.8" y="716.8" width="26.5" height="26.5" rx="2" fill="none" stroke="#4A5568" stroke-width="1.5"/><rect x="346.8" y="716.8" width="26.5" height="26.5" rx="2" fill="none" stroke="#4A5568" stroke-width="1.5"/><rect x="386.8" y="716.8" width="26.5" height="26.5" rx="2" fill="none" stroke="#4A5568" stroke-width="1.5"/><rect x="426.8" y="716.8" width="26.5" height="26.5" rx="2" fill="none" stroke="#4A5568" stroke-width="1.5"/><rect x="466.8" y="716.8" width="26.5" height="26.5" rx="2" fill="none" stroke="#4A5568" stroke-width="1.5"/><rect x="506.8" y="716.8" width="26.5" height="26.5" rx="2" fill="none" stroke="#4A5568" stroke-width="1.5"/><rect x="546.8" y="716.8" width="26.5" height="26.5" rx="2" fill="none" stroke="#4A5568" stroke-width="1.5"/><rect x="666.8" y="716.8" width="26.5" height="26.5" rx="2" fill="none" stroke="#4A5568" stroke-width="1.5"/><rect x="706.8" y="716.8" width="26.5" height="26.5" rx="2" fill="none" stroke="#4A5568" stroke-width="1.5"/><rect x="746.8" y="716.8" width="26.5" height="26.5" rx="2" fill="none" stroke="#4A5568" stroke-width="1.5"/><rect x="786.8" y="716.8" width="26.5" height="26.5" rx="2" fill="none" stroke="#4A5568" stroke-width="1.5"/><rect x="106.8" y="756.8" width="26.5" height="26.5" rx="2" fill="none" stroke="#4A5568" stroke-width="1.5"/><rect x="146.8" y="756.8" width="26.5" height="26.5" rx="2" fill="none" stroke="#4A5568" stroke-width="1.5"/><rect x="186.8" y="756.8" width="26.5" height="26.5" rx="2" fill="none" stroke="#4A5568" stroke-width="1.5"/><rect x="226.8" y="756.8" width="26.5" height="26.5" rx="2" fill="none" stroke="#4A5568" stroke-width="1.5"/><rect x="346.8" y="756.8" width="26.5" height="26.5" rx="2" fill="none" stroke="#4A5568" stroke-width="1.5"/><rect x="386.8" y="756.8" width="26.5" height="26.5" rx="2" fill="none" stroke="#4A5568" stroke-width="1.5"/><rect x="426.8" y="756.8" width="26.5" height="26.5" rx="2" fill="none" stroke="#4A5568" stroke-width="1.5"/><rect x="466.8" y="756.8" width="26.5" height="26.5" rx="2" fill="none" stroke="#4A5568" stroke-width="1.5"/><rect x="506.8" y="756.8" width="26.5" height="26.5" rx="2" fill="none" stroke="#4A5568" stroke-width="1.5"/><rect x="546.8" y="756.8" width="26.5" height="26.5" rx="2" fill="none" stroke="#4A5568" stroke-width="1.5"/><rect x="666.8" y="756.8" width="26.5" height="26.5" rx="2" fill="none" stroke="#4A5568" stroke-width="1.5"/><rect x="706.8" y="756.8" width="26.5" height="26.5" rx="2" fill="none" stroke="#4A5568" stroke-width="1.5"/><rect x="746.8" y="756.8" width="26.5" height="26.5" rx="2" fill="none" stroke="#4A5568" stroke-width="1.5"/><rect x="786.8" y="756.8" width="26.5" height="26.5" rx="2" fill="none" stroke="#4A5568" stroke-width="1.5"/><rect x="106.8" y="796.8" width="26.5" height="26.5" rx="2" fill="none" stroke="#4A5568" stroke-width="1.5"/><rect x="146.8" y="796.8" width="26.5" height="26.5" rx="2" fill="none" stroke="#4A5568" stroke-width="1.5"/><rect x="186.8" y="796.8" width="26.5" height="26.5" rx="2" fill="none" stroke="#4A5568" stroke-width="1.5"/><rect x="226.8" y="796.8" width="26.5" height="26.5" rx="2" fill="none" stroke="#4A5568" stroke-width="1.5"/><rect x="346.8" y="796.8" width="26.5" height="26.5" rx="2" fill="none" stroke="#4A5568" stroke-width="1.5"/><rect x="386.8" y="796.8" width="26.5" height="26.5" rx="2" fill="none" stroke="#4A5568" stroke-width="1.5"/><rect x="426.8" y="796.8" width="26.5" height="26.5" rx="2" fill="none" stroke="#4A5568" stroke-width="1.5"/><rect x="466.8" y="796.8" width="26.5" height="26.5" rx="2" fill="none" stroke="#4A5568" stroke-width="1.5"/><rect x="506.8" y="796.8" width="26.5" height="26.5" rx="2" fill="none" stroke="#4A5568" stroke-width="1.5"/><rect x="546.8" y="796.8" width="26.5" height="26.5" rx="2" fill="none" stroke="#4A5568" stroke-width="1.5"/><rect x="666.8" y="796.8" width="26.5" height="26.5" rx="2" fill="none" stroke="#4A5568" stroke-width="1.5"/><rect x="706.8" y="796.8" width="26.5" height="26.5" rx="2" fill="none" stroke="#4A5568" stroke-width="1.5"/><rect x="746.8" y="796.8" width="26.5" height="26.5" rx="2" fill="none" stroke="#4A5568" stroke-width="1.5"/><rect x="786.8" y="796.8" width="26.5" height="26.5" rx="2" fill="none" stroke="#4A5568" stroke-width="1.5"/><rect x="106.8" y="836.8" width="26.5" height="26.5" rx="2" fill="none" stroke="#4A5568" stroke-width="1.5"/><rect x="146.8" y="836.8" width="26.5" height="26.5" rx="2" fill="none" stroke="#4A5568" stroke-width="1.5"/><rect x="186.8" y="836.8" width="26.5" height="26.5" rx="2" fill="none" stroke="#4A5568" stroke-width="1.5"/><rect x="226.8" y="836.8" width="26.5" height="26.5" rx="2" fill="none" stroke="#4A5568" stroke-width="1.5"/><rect x="266.8" y="836.8" width="26.5" height="26.5" rx="2" fill="none" stroke="#4A5568" stroke-width="1.5"/><rect x="306.8" y="836.8" width="26.5" height="26.5" rx="2" fill="none" stroke="#4A5568" stroke-width="1.5"/><rect x="346.8" y="836.8" width="26.5" height="26.5" rx="2" fill="none" stroke="#4A5568" stroke-width="1.5"/><rect x="386.8" y="836.8" width="26.5" height="26.5" rx="2" fill="none" stroke="#4A5568" stroke-width="1.5"/><rect x="426.8" y="836.8" width="26.5" height="26.5" rx="2" fill="none" stroke="#4A5568" stroke-width="1.5"/><rect x="466.8" y="836.8" width="26.5" height="26.5" rx="2" fill="none" stroke="#4A5568" stroke-width="1.5"/><rect x="506.8" y="836.8" width="26.5" height="26.5" rx="2" fill="none" stroke="#4A5568" stroke-width="1.5"/><rect x="546.8" y="836.8" width="26.5" height="26.5" rx="2" fill="none" stroke="#4A5568" stroke-width="1.5"/><rect x="586.8" y="836.8" width="26.5" height="26.5" rx="2" fill="none" stroke="#4A5568" stroke-width="1.5"/><rect x="626.8" y="836.8" width="26.5" height="26.5" rx="2" fill="none" stroke="#4A5568" stroke-width="1.5"/><rect x="666.8" y="836.8" width="26.5" height="26.5" rx="2" fill="none" stroke="#4A5568" stroke-width="1.5"/><rect x="706.8" y="836.8" width="26.5" height="26.5" rx="2" fill="none" stroke="#4A5568" stroke-width="1.5"/><rect x="746.8" y="836.8" width="26.5" height="26.5" rx="2" fill="none" stroke="#4A5568" stroke-width="1.5"/><rect x="786.8" y="836.8" width="26.5" height="26.5" rx="2" fill="none" stroke="#4A5568" stroke-width="1.5"/><rect x="106.8" y="876.8" width="26.5" height="26.5" rx="2" fill="none" stroke="#4A5568" stroke-width="1.5"/><rect x="146.8" y="876.8" width="26.5" height="26.5" rx="2" fill="none" stroke="#4A5568" stroke-width="1.5"/><rect x="186.8" y="876.8" width="26.5" height="26.5" rx="2" fill="none" stroke="#4A5568" stroke-width="1.5"/><rect x="226.8" y="876.8" width="26.5" height="26.5" rx="2" fill="none" stroke="#4A5568" stroke-width="1.5"/><rect x="266.8" y="876.8" width="26.5" height="26.5" rx="2" fill="none" stroke="#4A5568" stroke-width="1.5"/><rect x="306.8" y="876.8" width="26.5" height="26.5" rx="2" fill="none" stroke="#4A5568" stroke-width="1.5"/><rect x="346.8" y="876.8" width="26.5" height="26.5" rx="2" fill="none" stroke="#4A5568" stroke-width="1.5"/><rect x="386.8" y="876.8" width="26.5" height="26.5" rx="2" fill="none" stroke="#4A5568" stroke-width="1.5"/><rect x="426.8" y="876.8" width="26.5" height="26.5" rx="2" fill="none" stroke="#4A5568" stroke-width="1.5"/><rect x="466.8" y="876.8" width="26.5" height="26.5" rx="2" fill="none" stroke="#4A5568" stroke-width="1.5"/><rect x="506.8" y="876.8" width="26.5" height="26.5" rx="2" fill="none" stroke="#4A5568" stroke-width="1.5"/><rect x="546.8" y="876.8" width="26.5" height="26.5" rx="2" fill="none" stroke="#4A5568" stroke-width="1.5"/><rect x="586.8" y="876.8" width="26.5" height="26.5" rx="2" fill="none" stroke="#4A5568" stroke-width="1.5"/><rect x="626.8" y="876.8" width="26.5" height="26.5" rx="2" fill="none" stroke="#4A5568" stroke-width="1.5"/><rect x="666.8" y="876.8" width="26.5" height="26.5" rx="2" fill="none" stroke="#4A5568" stroke-width="1.5"/><rect x="706.8" y="876.8" width="26.5" height="26.5" rx="2" fill="none" stroke="#4A5568" stroke-width="1.5"/><rect x="746.8" y="876.8" width="26.5" height="26.5" rx="2" fill="none" stroke="#4A5568" stroke-width="1.5"/><rect x="786.8" y="876.8" width="26.5" height="26.5" rx="2" fill="none" stroke="#4A5568" stroke-width="1.5"/><rect x="106.8" y="916.8" width="26.5" height="26.5" rx="2" fill="none" stroke="#4A5568" stroke-width="1.5"/><rect x="146.8" y="916.8" width="26.5" height="26.5" rx="2" fill="none" stroke="#4A5568" stroke-width="1.5"/><rect x="186.8" y="916.8" width="26.5" height="26.5" rx="2" fill="none" stroke="#4A5568" stroke-width="1.5"/><rect x="226.8" y="916.8" width="26.5" height="26.5" rx="2" fill="none" stroke="#4A5568" stroke-width="1.5"/><rect x="266.8" y="916.8" width="26.5" height="26.5" rx="2" fill="none" stroke="#4A5568" stroke-width="1.5"/><rect x="306.8" y="916.8" width="26.5" height="26.5" rx="2" fill="none" stroke="#4A5568" stroke-width="1.5"/><rect x="346.8" y="916.8" width="26.5" height="26.5" rx="2" fill="none" stroke="#4A5568" stroke-width="1.5"/><rect x="386.8" y="916.8" width="26.5" height="26.5" rx="2" fill="none" stroke="#4A5568" stroke-width="1.5"/><rect x="426.8" y="916.8" width="26.5" height="26.5" rx="2" fill="none" stroke="#4A5568" stroke-width="1.5"/><rect x="466.8" y="916.8" width="26.5" height="26.5" rx="2" fill="none" stroke="#4A5568" stroke-width="1.5"/><rect x="506.8" y="916.8" width="26.5" height="26.5" rx="2" fill="none" stroke="#4A5568" stroke-width="1.5"/><rect x="546.8" y="916.8" width="26.5" height="26.5" rx="2" fill="none" stroke="#4A5568" stroke-width="1.5"/><rect x="586.8" y="916.8" width="26.5" height="26.5" rx="2" fill="none" stroke="#4A5568" stroke-width="1.5"/><rect x="626.8" y="916.8" width="26.5" height="26.5" rx="2" fill="none" stroke="#4A5568" stroke-width="1.5"/><rect x="666.8" y="916.8" width="26.5" height="26.5" rx="2" fill="none" stroke="#4A5568" stroke-width="1.5"/><rect x="746.8" y="916.8" width="26.5" height="26.5" rx="2" fill="none" stroke="#4A5568" stroke-width="1.5"/><rect x="786.8" y="916.8" width="26.5" height="26.5" rx="2" fill="none" stroke="#4A5568" stroke-width="1.5"/><rect x="106.8" y="956.8" width="26.5" height="26.5" rx="2" fill="none" stroke="#4A5568" stroke-width="1.5"/><rect x="146.8" y="956.8" width="26.5" height="26.5" rx="2" fill="none" stroke="#4A5568" stroke-width="1.5"/><rect x="186.8" y="956.8" width="26.5" height="26.5" rx="2" fill="none" stroke="#4A5568" stroke-width="1.5"/><rect x="226.8" y="956.8" width="26.5" height="26.5" rx="2" fill="none" stroke="#4A5568" stroke-width="1.5"/><rect x="266.8" y="956.8" width="26.5" height="26.5" rx="2" fill="none" stroke="#4A5568" stroke-width="1.5"/><rect x="346.8" y="956.8" width="26.5" height="26.5" rx="2" fill="none" stroke="#4A5568" stroke-width="1.5"/><rect x="386.8" y="956.8" width="26.5" height="26.5" rx="2" fill="none" stroke="#4A5568" stroke-width="1.5"/><rect x="466.8" y="956.8" width="26.5" height="26.5" rx="2" fill="none" stroke="#4A5568" stroke-width="1.5"/><rect x="506.8" y="956.8" width="26.5" height="26.5" rx="2" fill="none" stroke="#4A5568" stroke-width="1.5"/><rect x="546.8" y="956.8" width="26.5" height="26.5" rx="2" fill="none" stroke="#4A5568" stroke-width="1.5"/><rect x="626.8" y="956.8" width="26.5" height="26.5" rx="2" fill="none" stroke="#4A5568" stroke-width="1.5"/><rect x="666.8" y="956.8" width="26.5" height="26.5" rx="2" fill="none" stroke="#4A5568" stroke-width="1.5"/><rect x="706.8" y="956.8" width="26.5" height="26.5" rx="2" fill="none" stroke="#4A5568" stroke-width="1.5"/><rect x="746.8" y="956.8" width="26.5" height="26.5" rx="2" fill="none" stroke="#4A5568" stroke-width="1.5"/><rect x="786.8" y="956.8" width="26.5" height="26.5" rx="2" fill="none" stroke="#4A5568" stroke-width="1.5"/><rect x="146.8" y="996.8" width="26.5" height="26.5" rx="2" fill="none" stroke="#4A5568" stroke-width="1.5"/><rect x="186.8" y="996.8" width="26.5" height="26.5" rx="2" fill="none" stroke="#4A5568" stroke-width="1.5"/><rect x="226.8" y="996.8" width="26.5" height="26.5" rx="2" fill="none" stroke="#4A5568" stroke-width="1.5"/><rect x="266.8" y="996.8" width="26.5" height="26.5" rx="2" fill="none" stroke="#4A5568" stroke-width="1.5"/><rect x="466.8" y="996.8" width="26.5" height="26.5" rx="2" fill="none" stroke="#4A5568" stroke-width="1.5"/><rect x="586.8" y="996.8" width="26.5" height="26.5" rx="2" fill="none" stroke="#4A5568" stroke-width="1.5"/><rect x="626.8" y="996.8" width="26.5" height="26.5" rx="2" fill="none" stroke="#4A5568" stroke-width="1.5"/><rect x="706.8" y="996.8" width="26.5" height="26.5" rx="2" fill="none" stroke="#4A5568" stroke-width="1.5"/><rect x="746.8" y="996.8" width="26.5" height="26.5" rx="2" fill="none" stroke="#4A5568" stroke-width="1.5"/><rect x="786.8" y="996.8" width="26.5" height="26.5" rx="2" fill="none" stroke="#4A5568" stroke-width="1.5"/></g>
<g><rect x="700.0" y="910.0" width="40" height="40" rx="6" fill="#3FB8AF" opacity="0.25"/><rect x="706.0" y="916.0" width="28" height="28" rx="2" fill="#3FB8AF"/><rect x="300.0" y="950.0" width="40" height="40" rx="6" fill="#3FB8AF" opacity="0.25"/><rect x="306.0" y="956.0" width="28" height="28" rx="2" fill="#3FB8AF"/><rect x="420.0" y="950.0" width="40" height="40" rx="6" fill="#3FB8AF" opacity="0.25"/><rect x="426.0" y="956.0" width="28" height="28" rx="2" fill="#3FB8AF"/><rect x="580.0" y="950.0" width="40" height="40" rx="6" fill="#3FB8AF" opacity="0.25"/><rect x="586.0" y="956.0" width="28" height="28" rx="2" fill="#3FB8AF"/><rect x="100.0" y="990.0" width="40" height="40" rx="6" fill="#3FB8AF" opacity="0.25"/><rect x="106.0" y="996.0" width="28" height="28" rx="2" fill="#3FB8AF"/><rect x="300.0" y="990.0" width="40" height="40" rx="6" fill="#3FB8AF" opacity="0.25"/><rect x="306.0" y="996.0" width="28" height="28" rx="2" fill="#3FB8AF"/><rect x="340.0" y="990.0" width="40" height="40" rx="6" fill="#3FB8AF" opacity="0.25"/><rect x="346.0" y="996.0" width="28" height="28" rx="2" fill="#3FB8AF"/><rect x="380.0" y="990.0" width="40" height="40" rx="6" fill="#3FB8AF" opacity="0.25"/><rect x="386.0" y="996.0" width="28" height="28" rx="2" fill="#3FB8AF"/><rect x="420.0" y="990.0" width="40" height="40" rx="6" fill="#3FB8AF" opacity="0.25"/><rect x="426.0" y="996.0" width="28" height="28" rx="2" fill="#3FB8AF"/><rect x="500.0" y="990.0" width="40" height="40" rx="6" fill="#3FB8AF" opacity="0.25"/><rect x="506.0" y="996.0" width="28" height="28" rx="2" fill="#3FB8AF"/><rect x="540.0" y="990.0" width="40" height="40" rx="6" fill="#3FB8AF" opacity="0.25"/><rect x="546.0" y="996.0" width="28" height="28" rx="2" fill="#3FB8AF"/><rect x="660.0" y="990.0" width="40" height="40" rx="6" fill="#3FB8AF" opacity="0.25"/><rect x="666.0" y="996.0" width="28" height="28" rx="2" fill="#3FB8AF"/></g>
<rect x="285" y="590" width="48" height="210" rx="10" fill="#081220" stroke="#E8E2D6" stroke-opacity="0.55" stroke-width="3"/>
<rect x="587" y="590" width="48" height="210" rx="10" fill="#081220" stroke="#E8E2D6" stroke-opacity="0.55" stroke-width="3"/>
<path d="M402.0,520 A58,58 0 0 1 518.0,520 Z" fill="#081220" stroke="#E8E2D6" stroke-opacity="0.55" stroke-width="3"/>
<path d="M611.0,770 V850 H910 V1060 H1010 V1150" fill="none" stroke="#E08A3C" stroke-width="12" stroke-linejoin="miter" stroke-linecap="round"/>
<circle cx="611.0" cy="770" r="9" fill="#E08A3C"/>
<path d="M876,1150 H1060 M876,1150 V1170 M1060,1150 V1180" fill="none" stroke="#E08A3C" stroke-width="8" stroke-linecap="round" stroke-linejoin="round"/>
<rect x="820" y="1168" width="112" height="7" rx="2" fill="#E08A3C"/>
<circle cx="1010" cy="1150" r="12" fill="#E08A3C"/>
<g fill="#8A5A2E" stroke="#C08A55" stroke-width="3">
<rect x="820" y="1180" width="22" height="120" rx="3"/>
<rect x="850" y="1180" width="22" height="120" rx="3"/>
<rect x="880" y="1180" width="22" height="120" rx="3"/>
<rect x="910" y="1180" width="22" height="120" rx="3"/>
</g>
<rect x="1049" y="1180" width="22" height="120" rx="3" fill="#E08A3C" stroke="#F4B679" stroke-width="3"/>
<text x="876" y="1334" text-anchor="middle" font-family="Inter" font-weight="600" font-size="22" fill="#E8E2D6">4 × 128 GB</text>
<text x="1060" y="1334" text-anchor="middle" font-family="Inter" font-weight="600" font-size="22" fill="#E8E2D6">1 × 512 GB</text>
<rect x="820" y="1358" width="300.0" height="24" fill="#8A5A2E"/>
<rect x="820" y="1394" width="108.6" height="24" fill="#E08A3C"/>
<text x="820" y="1460" font-family="Inter" font-weight="600" font-size="26" fill="#E8E2D6">44,2 W contra 16,0 W,</text>
<text x="820" y="1494" font-family="Inter" font-size="26" fill="#E8E2D6" opacity="0.85">según Micron</text>
<text font-family="Archivo" font-weight="800" font-size="104" letter-spacing="-4" fill="#E8E2D6"><tspan x="74" y="1206">Megavatios</tspan><tspan x="74" y="1306">en espera</tspan></text>
<rect x="80" y="1348" width="120" height="6" fill="#E08A3C"/>
<text font-family="Inter" font-size="29" fill="#E8E2D6" opacity="0.88"><tspan x="80" y="1404">El cómputo para IA en la región,</tspan><tspan x="80" y="1444">entre la energía y los incentivos</tspan></text>
<rect x="80" y="1480" width="60" height="3" fill="#E8E2D6" opacity="0.45"/>
<text font-family="Inter" font-size="26" fill="#E8E2D6" opacity="0.88"><tspan x="80" y="1522"><tspan font-weight="700" fill="#E08A3C">Claude Opus 5.5</tspan> bajo la lupa de METR:</tspan><tspan x="80" y="1558">mejora «modesta» sobre Fable 5.1</tspan></text>
</svg>
